<svg width="49" height="51" viewBox="0 0 49 51" fill="none" xmlns="http://www.w3.org/2000/svg">
<path d="M48.8885 50.9351C41.3288 47.1684 34.2791 43.7408 27.3144 40.1316C25.3471 39.1142 23.7866 39.0355 21.7707 40.0952C14.7574 43.7953 7.62882 47.2834 0.269473 50.9896C0.269473 41.2458 0.269473 31.9078 0.269473 22.3761C2.4372 22.588 3.45124 23.4843 3.42088 25.7673C3.32372 32.1925 3.38444 38.6116 3.38444 45.5575C9.85726 42.3177 15.9111 39.3988 21.8557 36.2559C23.7684 35.2446 25.2439 35.2567 27.1505 36.2498C33.0222 39.314 39.0092 42.1663 45.0024 45.1215C46.575 39.3201 46.0832 38.2301 41.098 35.729C28.2921 29.3039 15.5104 22.8242 2.66187 16.4838C0.761311 15.5452 -0.0219875 14.5036 0.0690935 12.3659C0.239111 8.44779 0.117671 4.52366 0.117671 0.121115C1.73284 0.884142 2.98369 1.45338 4.21631 2.05896C9.99692 4.92939 15.8443 7.67871 21.5156 10.749C23.7684 11.9662 25.4442 11.7664 27.5998 10.6339C34.4673 7.03074 41.432 3.63346 48.6699 0C48.6699 9.71345 48.6699 19.112 48.6699 28.5953C46.5022 28.3652 45.5124 27.3842 45.5549 25.0769C45.6703 18.7244 45.5974 12.3719 45.5974 5.61975C44.5652 6.04365 43.7637 6.31011 43.0107 6.69162C37.5945 9.4046 32.2389 12.2387 26.7437 14.7821C25.5171 15.3514 23.5923 15.3695 22.3657 14.8185C17.2227 12.4991 12.2254 9.85273 7.16734 7.34564C6.1108 6.81879 5.01175 6.36461 3.42694 5.64397C3.42694 7.927 3.14156 9.85879 3.53624 11.6331C3.76091 12.6323 4.95711 13.68 5.97721 14.2008C19.3783 21.0196 32.7975 27.802 46.2896 34.4452C48.3299 35.4505 49.0524 36.6071 48.9492 38.8175C48.7671 42.6265 48.8885 46.4598 48.8885 50.9351Z" fill="url(#paint0_linear_47_409)"/>
<defs>
<linearGradient id="paint0_linear_47_409" x1="7.32873" y1="12.6647" x2="46.3423" y2="42.0181" gradientUnits="userSpaceOnUse">
<stop stop-color="#FFDF00"/>
<stop offset="0.0517" stop-color="#FED700"/>
<stop offset="0.2345" stop-color="#FBBF12"/>
<stop offset="0.4205" stop-color="#F9AC19"/>
<stop offset="0.6085" stop-color="#F89E1C"/>
<stop offset="0.8" stop-color="#F8961D"/>
<stop offset="1" stop-color="#F7941D"/>
</linearGradient>
</defs>
</svg>
